<?xml version="1.0" encoding="UTF-8"?>
<!DOCTYPE svg PUBLIC "-//W3C//DTD SVG 1.1//EN" "http://www.w3.org/Graphics/SVG/1.1/DTD/svg11.dtd">
<!-- Creator: CorelDRAW -->
<svg xmlns="http://www.w3.org/2000/svg" xml:space="preserve" width="210mm" height="297mm" version="1.1" style="shape-rendering:geometricPrecision; text-rendering:geometricPrecision; image-rendering:optimizeQuality; fill-rule:evenodd; clip-rule:evenodd"
viewBox="0 0 21000 29700"
 xmlns:xlink="http://www.w3.org/1999/xlink"
 xmlns:xodm="http://www.corel.com/coreldraw/odm/2003">
 <defs>
  <style type="text/css">
   <![CDATA[
    .str0 {stroke:#9D9E9E;stroke-width:20;stroke-miterlimit:22.9256}
    .fil0 {fill:#9D9E9E}
   ]]>
  </style>
 </defs>
 <g id="Vrstva_x0020_1">
  <metadata id="CorelCorpID_0Corel-Layer"/>
  <path class="fil0 str0" d="M10583.83 11854.2c1613.56,48.1 2906.87,1371.11 2906.87,2996.33 0,995.47 -485.33,1877.44 -1232.15,2422.67l460.84 1225.21c-190.1,521.02 -930.5,1012.05 -1058.58,1544.89 -23.73,98.76 120.79,272.35 351.38,115.85 227.7,-154.54 2800.44,-1468.49 1729.66,465.58l-3084.59 50.33c135.51,-350.71 1109.72,-1772.27 1017.98,-2035.21l-462.45 -878.72c-230.63,56.88 -471.72,87.23 -719.92,87.23 -256.33,0 -505.13,-32.23 -742.6,-92.77l-471.68 896.27c-91.73,262.94 882.48,1684.5 1017.98,2035.21l-3084.59 -50.33c-1070.78,-1934.07 1501.96,-620.12 1729.65,-465.58 230.59,156.5 375.12,-17.09 351.39,-115.85 -128.08,-532.84 -868.48,-1023.87 -1058.58,-1544.89l471.25 -1252.9c-734.66,-546.38 -1210.65,-1421.07 -1210.65,-2406.99 0,-1458.73 1041.94,-2673.89 2422.15,-2942.38 -242.3,-1138.15 551.76,-1381.33 1175.09,-1521.74 -10.63,-40.02 -16.28,-82.01 -16.28,-125.27 0,-275.74 229.57,-499.28 512.76,-499.28 283.19,0 512.76,223.54 512.76,499.28 0,275.74 -229.57,499.28 -512.76,499.28 -195.08,0 -364.71,-106.09 -451.38,-262.24 -487.18,266.26 -891.15,595.62 -553.55,1356.02zm290.19 1543.43l1132.85 0 0 729.37 -1132.85 0 0 -729.37zm-1846.72 -15.52l1148.38 0 0 729.37 -1148.38 0 0 -729.37z"/>
 </g>
</svg>
